<svg xmlns="http://www.w3.org/2000/svg" width="240" height="240" fill="none" viewBox="0 0 240 240">
    <g clip-path="url(#clip0)">
        <path fill="#EAC083" d="M187.767 181.564H29V214h158.767v-32.436z"/>
        <path fill="#006500" d="M104.798 153.092h7.988c-.697-24.088-1.299-48.177-1.996-72.265h-1.91c-1.378 24.086-2.716 48.174-4.082 72.265z"/>
        <path fill="#006500" d="M108.768 87.004c.881-.126 1.762-.248 2.646-.373-1.4-11.346-1.982-10.97 1.372-21.664-.198-.08-.396-.164-.597-.245-4.369 10.875-3.867 10.235-3.421 22.282z"/>
        <path fill="#006500" d="M129.801 51.756c.112.075.491-.91-.192.446-.683 1.355-5.746 5.322-7.522 9.965-.887 2.316-2.61 7.457-5.805 7.924-1.074.156-2.311-.108-3.446-.097-1.135.014-2.484.345-3.647-.075-1.163-.42-2.205-2.344-2.771-3.22-.831-1.284-3.059-2.576-3.087-3.931-.117-5.656 10.704-10.374 13.971-11.465 5.008-1.668 8.903-1.957 12.499.453z"/>
        <path fill="#009700" d="M125.204 52.113c.092.044.976-.485-.351.22-1.328.704-4.328 7.637-4.988 10.616-.329 1.486-2.462 6.558-4.985 6.755-.845.067-2.047-.05-2.987-.066-.942-.017-2.171.322-3.15-.048-.979-.37-1.946-2.023-2.395-2.789-.658-1.124-2.763-2.21-2.679-3.401.345-4.966 8.481-8.632 11.98-10.18 3.499-1.547 6.591-2.574 9.555-1.107z"/>
        <path fill="#006500" d="M109.125 67.233c.597.606 3.483-2.792 4.046-3.382.563-.59 3.956-3.46 3.379-4.081-.577-.62-3.432 2.875-3.97 3.446-.538.565-4.052 3.41-3.455 4.017zM108.138 120.386c.658-.22 1.313-.448 1.963-.693-4.054-8.71-3.739-9.013-11.752-14.213l-.26.429c7.233 5.573 6.918 5.826 10.049 14.477z"/>
        <path fill="#006500" d="M107.533 117.552c.61.318 1.221.635 1.834.95 4.222-7.775 3.683-7.797 10.604-13.033-.09-.139-.176-.281-.265-.42-7.643 4.893-7.037 4.715-12.173 12.503zM81.944 102.686c-.009.058-.012.103-.006.153.053.512.959 1.545 8.727 6.48 3.872 2.46 5.632 3.309 7.118 2.605.499-.236.647-.515 2.244-1.486 1.67-1.013 1.983-.997 2.381-1.534.6-.807.368-1.478.53-3.438.234-2.872.864-3.053.599-3.846-1.109-3.316-12.635-1.907-13.703-1.776-1.64.2-7.667.935-7.89 2.842z"/>
        <path fill="#009700" d="M84.851 103.103c-.005.053-.008.089-.005.134.044.442.83 1.336 7.556 5.609 3.354 2.129 4.876 2.867 6.161 2.257.433-.206.56-.445 1.944-1.286 1.444-.877 1.714-.863 2.063-1.328.518-.698.318-1.28.457-2.975.204-2.486.747-2.642.519-3.332-.959-2.87-10.938-1.651-11.864-1.539-1.419.172-6.638.81-6.83 2.46z"/>
        <path fill="#006500" d="M101.603 107.098c.037-.187-1.784-.705-4.067-1.157-2.284-.453-4.166-.668-4.203-.481-.037.187 1.784.705 4.068 1.158 2.284.452 4.165.667 4.202.48zM135.643 102.686c.008.058.011.103.005.153-.053.512-.959 1.545-8.726 6.48-3.873 2.46-5.632 3.309-7.118 2.605-.5-.236-.647-.515-2.245-1.486-1.67-1.013-1.982-.997-2.381-1.534-.599-.807-.368-1.478-.53-3.438-.234-2.872-.864-3.053-.599-3.846 1.11-3.316 12.636-1.907 13.703-1.776 1.64.2 7.668.935 7.891 2.842z"/>
        <path fill="#009700" d="M132.735 103.103c.005.053.008.089.005.134-.044.442-.83 1.336-7.555 5.609-3.354 2.129-4.877 2.867-6.162 2.257-.432-.206-.561-.445-1.943-1.286-1.445-.877-1.715-.863-2.064-1.328-.518-.698-.317-1.28-.457-2.975-.203-2.486-.747-2.642-.518-3.332.959-2.87 10.937-1.651 11.863-1.539 1.419.172 6.638.81 6.831 2.46z"/>
        <path fill="#006500" d="M120.183 106.625c2.284-.453 4.105-.971 4.068-1.158-.037-.187-1.918.028-4.202.48-2.284.453-4.105.971-4.068 1.158.037.187 1.919-.028 4.202-.48zM108.258 92.22c.85-.284 1.698-.58 2.537-.896-5.242-11.262-4.832-11.655-15.193-18.374-.111.183-.223.367-.334.554 9.348 7.206 8.944 7.532 12.99 18.716z"/>
        <path fill="#006500" d="M107.474 88.557l2.37 1.227c5.457-10.048 4.762-10.082 13.709-16.845l-.343-.546c-9.878 6.324-9.094 6.093-15.736 16.164zM77.455 82.63c.016.126-.817-.392.449.26 1.265.651 7.795-.69 10.553-1.108 1.374-.209 6.111 1.002 7.444-1.47.446-.83 1.115-2.065 1.645-3.048.53-.982 1.65-2.04 1.826-3.295.176-1.259-.94-3.204-1.41-4.173-.69-1.417-.578-3.96-1.76-4.704-4.93-3.09-12.689 4.84-14.554 7.401-2.855 3.933-4.77 6.11-4.193 10.138z"/>
        <path fill="#009700" d="M80.301 80.451c.023.103-.635-.28.346.223.981.504 6.463-.398 8.777-.535 1.154-.07 5.615.972 6.82-1.21.404-.732 1.045-1.823 1.505-2.678.46-.855 1.411-1.776 1.556-2.85.142-1.078-.795-2.809-1.224-3.608-.63-1.172-.424-3.54-1.503-4.083-4.502-2.26-10.544 3.449-12.909 6.238-2.364 2.786-4.1 5.208-3.368 8.503z"/>
        <path fill="#006500" d="M97.153 72.518c.26.79-3.94 1.782-4.587 1.98-.647.197-4.017 1.928-4.26 1.18-.242-.75 3.301-1.815 3.993-2.027.694-.214 4.597-1.923 4.854-1.133zM144.336 74.255c.047.126.929-.456-.415.25-1.344.708-7.774 1.006-11.92 3.756-2.066 1.372-6.46 4.562-9.334 3.092-.965-.492-1.818-1.428-2.752-2.076-.931-.646-2.225-1.158-2.928-2.174-.702-1.016-.432-3.187-.384-4.228.069-1.528-.996-3.87-.229-4.991 3.192-4.674 14.746-2.246 18.042-1.239 5.052 1.542 8.389 3.56 9.92 7.61z"/>
        <path fill="#009700" d="M140.382 71.88c.048.093 1.077.17-.412-.024-1.492-.195-7.966 3.713-10.235 5.756-1.132 1.019-5.819 3.914-7.986 2.614-.727-.437-1.636-1.225-2.395-1.784-.758-.56-1.957-.997-2.537-1.865-.582-.869-.41-2.775-.329-3.66.117-1.298-.964-3.4-.203-4.323 3.167-3.844 11.925-2.116 15.675-1.348 3.75.766 6.864 1.72 8.422 4.635z"/>
        <path fill="#006500" d="M118.502 74.879c.133.84 4.458-.256 5.261-.41.803-.155 5.233-.525 5.124-1.366-.108-.84-4.466.353-5.236.504-.769.15-5.283.431-5.149 1.272z"/>
        <path fill="#EFCE98" d="M29 181.564h158.767c-17.713-22.916-50.306-36.508-84.366-35.105C55.37 148.438 30.854 179.148 29 181.564z"/>
        <path fill="#000" d="M70.78 175.658c11.926 0 21.594-1.287 21.594-2.873 0-1.587-9.668-2.873-21.594-2.873-11.926 0-21.594 1.286-21.594 2.873 0 1.586 9.668 2.873 21.594 2.873z" opacity=".18"/>
        <path fill="#9CBB3A" stroke="#000" stroke-miterlimit="10" stroke-width=".278" d="M61.18 169.281l.703-1.62c.443-.29 1.018-.61 1.216-.432.103.095.114.32-.062.768-.588 1.501 1.94 2.92 1.72 3.836-.12.493-1.011 1.024-4.667 1.055-.574.028-1.561-.006-2.61-.504-.208-.1-2.483-1.186-2.364-2.575.092-1.055 1.553-2.126 3.583-2.148.828.537 1.656 1.08 2.482 1.62zM75.617 168.682l-.702-1.62c-.444-.289-1.018-.609-1.216-.431-.103.094-.114.32.061.768.589 1.5-1.94 2.92-1.72 3.836.12.492 1.012 1.024 4.667 1.055.575.027 1.562-.006 2.61-.504.21-.1 2.484-1.186 2.364-2.575-.092-1.055-1.553-2.127-3.582-2.149l-2.482 1.62z"/>
        <path fill="#4F803B" d="M64.76 171.83c.003-.014.003-.028.006-.041-1.514.431-2.73.378-3.6.225-1.937-.345-3.8-1.47-5.495-3.257-.32.323-.518.685-.55 1.047-.119 1.386 2.156 2.474 2.365 2.575 1.046.501 2.033.534 2.61.503 3.652-.027 4.545-.559 4.664-1.052zM72.255 171.438l-.006-.042c1.514.431 2.73.379 3.6.225 1.938-.345 3.8-1.469 5.495-3.256.32.323.519.685.55 1.046.12 1.387-2.156 2.475-2.365 2.575-1.045.501-2.032.535-2.61.504-3.652-.031-4.544-.56-4.664-1.052z"/>
        <path fill="#F8D9AF" stroke="#000" stroke-miterlimit="10" stroke-width=".278" d="M48.996 146.167v2.752c-.3-.122-1.422-.542-2.247 0-.075.051-.153.112-.228.184 0 0-.11.103-.201.226-.137.181-.814 2.059.248 3.846.745 1.256 1.94 1.779 2.428 1.963.784 1.862 2.197 4.62 4.715 7.373 1.196 1.308 2.418 2.644 4.36 3.733 3.89 2.182 7.852 1.795 11.346 1.453 3.337-.326 6.936-.679 10.4-3.268 2.726-2.038 4.187-4.579 4.675-5.445 1.004-1.784 1.528-3.429 1.818-4.623l.786-2.021c.363.031 1.007.034 1.648-.303 1.154-.607 1.464-1.871 1.628-2.541.343-1.398.44-4.106-1.051-4.718-.956-.393-2.097.272-2.54.57l-.945-1.865-36.84 2.684z"/>
        <path fill="#F7CDA4" d="M88.894 145.256c-.903-.37-1.977.259-2.398.538-.298-.588-.593-1.175-.892-1.76-.54 3.38-2.32 11.53-9.028 17.984-2.43 2.339-4.918 3.886-6.998 4.919l.53-.05c3.148-.309 6.546-.64 9.814-3.082 2.574-1.923 3.95-4.32 4.41-5.138.949-1.684 1.442-3.237 1.718-4.362.249-.634.497-1.272.742-1.906.343.03.95.03 1.556-.287 1.09-.573 1.38-1.765 1.536-2.397.326-1.327.415-3.883-.99-4.459z" opacity=".8"/>
        <path fill="#9D491B" d="M53.028 156.438c.397 0 .72-.322.72-.719 0-.396-.323-.718-.72-.718-.397 0-.72.322-.72.718 0 .397.323.719.72.719zM82.406 154.278c.398 0 .72-.322.72-.719 0-.396-.322-.718-.72-.718-.397 0-.719.322-.719.718 0 .397.322.719.72.719z"/>
        <path fill="#000" stroke="#000" stroke-miterlimit="10" stroke-width=".278" d="M56.594 153.832c1.045 0 1.893-.699 1.893-1.561 0-.863-.848-1.562-1.893-1.562-1.046 0-1.893.699-1.893 1.562 0 .862.847 1.561 1.893 1.561zM76.967 152.235c1.046 0 1.893-.7 1.893-1.562 0-.862-.847-1.562-1.893-1.562s-1.893.7-1.893 1.562c0 .862.847 1.562 1.893 1.562zM50.873 148.814c.111.743 9.382.364 9.435-.385.028-.386-2.423-.988-4.55-.943-2.407.05-4.944.93-4.885 1.328zM72.252 147.62c.112.743 9.382.364 9.435-.385.028-.387-2.423-.988-4.55-.943-2.406.047-4.946.929-4.885 1.328z"/>
        <path fill="#EA4A65" stroke="#000" stroke-miterlimit="10" stroke-width=".278" d="M57.67 156.443c6.703-.721 13.405-1.442 20.105-2.165.078.804.106 2.176-.415 3.707-.753 2.219-2.208 3.435-2.975 4.059-3.24 2.638-8.32 3.354-12.162 1.096-.783-.462-2.922-1.717-3.99-4.384-.365-.913-.504-1.739-.563-2.313z"/>
        <path fill="#E43753" d="M63.325 156.126c2.935-.362 5.874-.721 8.81-1.083.045.248.078.671-.128 1.152-.299.699-.923 1.105-1.25 1.314-1.385.88-3.61 1.205-5.333.588-.351-.126-1.31-.471-1.818-1.273-.175-.27-.248-.523-.281-.698z"/>
        <path stroke="#000" stroke-miterlimit="10" stroke-width=".278" d="M89.095 139.194c-7.19.946-14.635 1.759-22.316 2.399-6.677.557-13.182.952-19.505 1.214.747 16.272 6.805 27.952 13.89 29.21 1.218.217 3.117.239 5.573-1.008-.29.203-.585.448-.87.732-1.176 1.175-1.717 2.541-1.21 3.051.51.509 1.877-.031 3.056-1.208.168-.167.32-.337.46-.51.095.106.193.215.296.318 1.176 1.174 2.545 1.714 3.056 1.208.51-.51-.031-1.873-1.21-3.051-.357-.356-.734-.654-1.099-.882 3.834 1.673 6.563 1.041 7.918.548 7.459-2.722 12.954-15.693 11.961-32.021z"/>
        <path fill="#D28530" stroke="#000" stroke-miterlimit="10" stroke-width=".278" d="M52.983 138.036c-1.603.443-3.99 1.317-6.616 3.19-1.86 1.325-3.683 2.625-3.546 3.535.145.96 2.512 1.776 13.11.765 8.392-.523 25.053-1.611 34.327-2.633 1.564-.172 4.834-.559 4.957-1.787.14-1.431-4.068-3.204-4.957-3.577-3.123-1.305-5.906-1.608-7.724-1.661-.407-2.408-1.154-5.498-2.573-8.871-1.18-2.803-2.518-5.072-3.71-6.814-2.287-.582-5.58-1.13-9.522-.833-4.353.329-7.818 1.562-10.099 2.592-.652 1.461-1.31 3.187-1.89 5.169-1.227 4.206-1.64 8.039-1.757 10.925z"/>
        <path fill="#C87029" d="M88.956 137.496c-2.75-1.15-5.197-1.414-6.798-1.464-.36-2.121-1.015-4.838-2.267-7.808-1.04-2.466-2.216-4.465-3.264-5.995-2.9-2.124-3.792-2.247-4.082-1.982-1.166 1.063 7.227 8.681 5.693 15.423-.942 4.142-5.342 6.686-8.805 8.167 9.374-.473 15.67-1.192 19.52-1.617 1.377-.154 4.254-.493 4.363-1.573.126-1.261-3.577-2.823-4.36-3.151z"/>
        <path fill="#E6FCEC" d="M211 95.393h-81.77v97.135H211V95.393z"/>
        <path fill="#fff" d="M203.885 105.194h-67.534v80.222h67.534v-80.222z"/>
        <path stroke="#000" stroke-miterlimit="10" stroke-width=".278" d="M184 98.842h-30.817v12.253H184V98.842z"/>
        <path fill="#000" d="M173.89 120.03h-30.468v5.146h30.468v-5.146zM173.812 137.268h-30.468v5.146h30.468v-5.146zM173.89 155.8h-30.468v5.147h30.468V155.8z"/>
        <path fill="#006837" d="M184 119.337l-2.655 1.979 5.356 3.96 11.103-9.305-4.361-1.188-6.346 6.533-3.097-1.979zM184.834 136.575l-2.652 1.979 5.353 3.958 11.105-9.303-4.363-1.188-6.346 6.533-3.097-1.979zM185.826 155.11l-2.654 1.979 5.353 3.958 11.105-9.305-4.363-1.186-6.343 6.533-3.098-1.979z"/>
        <path fill="#fff" d="M112.652 154.503v8.053l-4.938 4.929v25.046h36.778v-25.046l-5.922-5.915v-7.067h-25.918z"/>
        <path fill="#006837" d="M123.052 165.119v7.516h-6.865v5.967h6.865v6.597l8.194.17v-6.767h6.864v-6.19l-7.243.036c-.023-2.444-.042-4.888-.064-7.332h-7.751v.003z"/>
        <path fill="#D43900" d="M143.246 146.865h-34.31v9.2h34.31v-9.2z"/>
        <path fill="#fff" d="M43.46 161.158v3.803l-2.331 2.324v11.821h17.358v-11.821l-2.796-2.792v-3.335H43.459z"/>
        <path fill="#006837" d="M48.37 166.169v3.549h-3.243v2.816h3.24v3.115c1.288.028 2.578.053 3.867.081v-3.193h3.24v-2.922l-3.419.016c-.011-1.152-.02-2.307-.03-3.46h-3.656v-.002z"/>
        <path fill="#D43900" d="M57.943 156.819H41.75v4.342h16.193v-4.342z"/>
    </g>
    <defs>
        <clipPath id="clip0">
            <path fill="#fff" d="M0 0H182V164H0z" transform="translate(29 50)"/>
        </clipPath>
    </defs>
</svg>
