<svg xmlns="http://www.w3.org/2000/svg" width="240" height="240" fill="none" viewBox="0 0 240 240">
    <g clip-path="url(#clip0)">
        <path fill="#EAC083" d="M175.526 187.244H15V220h160.526v-32.756z"/>
        <path fill="#006500" d="M91.638 158.491h8.076c-.704-24.325-1.313-48.651-2.018-72.977h-1.931c-1.393 24.323-2.746 48.649-4.127 72.977z"/>
        <path fill="#006500" d="M95.652 91.752c.891-.127 1.782-.25 2.675-.377-1.415-11.457-2.004-11.078 1.387-21.877-.2-.082-.4-.166-.603-.248-4.417 10.982-3.91 10.336-3.459 22.502z"/>
        <path fill="#006500" d="M116.919 56.157c.113.076.496-.92-.195.45-.69 1.369-5.81 5.374-7.605 10.063-.897 2.338-2.639 7.53-5.87 8.002-1.085.158-2.336-.11-3.484-.098-1.147.014-2.512.349-3.687-.076-1.176-.424-2.23-2.367-2.802-3.252-.84-1.296-3.093-2.6-3.12-3.97-.12-5.71 10.821-10.475 14.125-11.577 5.063-1.684 9.001-1.976 12.638.458z"/>
        <path fill="#009700" d="M112.27 56.517c.093.045.987-.49-.355.222-1.342.71-4.375 7.713-5.043 10.72-.333 1.502-2.489 6.623-5.041 6.823-.854.067-2.069-.05-3.019-.068-.953-.017-2.196.326-3.185-.047-.99-.374-1.968-2.044-2.422-2.817-.665-1.136-2.793-2.232-2.709-3.435.35-5.015 8.576-8.717 12.114-10.28 3.537-1.562 6.664-2.6 9.66-1.118z"/>
        <path fill="#006500" d="M96.013 71.786c.603.612 3.521-2.82 4.09-3.416.57-.596 4.001-3.494 3.417-4.12-.583-.627-3.47 2.903-4.014 3.48-.544.57-4.096 3.443-3.493 4.056zM95.015 125.463c.665-.222 1.328-.453 1.985-.7-4.1-8.795-3.78-9.102-11.882-14.352l-.263.432c7.313 5.628 6.994 5.884 10.16 14.62z"/>
        <path fill="#006500" d="M94.403 122.601c.618.321 1.235.641 1.855.959 4.268-7.851 3.724-7.873 10.721-13.161-.09-.14-.178-.284-.268-.424-7.727 4.941-7.115 4.762-12.308 12.626zM68.53 107.588c-.008.059-.01.104-.005.155.053.517.97 1.56 8.823 6.544 3.916 2.485 5.695 3.342 7.197 2.631.505-.239.654-.52 2.27-1.501 1.688-1.023 2.004-1.007 2.407-1.549.606-.815.372-1.493.536-3.472.236-2.9.874-3.083.606-3.884-1.122-3.348-12.776-1.926-13.856-1.794-1.657.203-7.752.945-7.978 2.87z"/>
        <path fill="#009700" d="M71.47 108.01c-.005.053-.008.09-.005.135.045.447.84 1.349 7.64 5.664 3.39 2.15 4.93 2.895 6.23 2.28.437-.208.566-.45 1.964-1.299 1.46-.886 1.734-.871 2.086-1.341.525-.705.322-1.293.463-3.005.206-2.51.755-2.667.524-3.364-.97-2.898-11.059-1.667-11.995-1.555-1.435.174-6.712.818-6.906 2.485z"/>
        <path fill="#006500" d="M88.409 112.043c.037-.188-1.804-.712-4.113-1.169-2.31-.456-4.212-.674-4.25-.485-.037.189 1.805.712 4.114 1.169 2.309.457 4.211.674 4.249.485zM122.825 107.588c.008.059.011.104.005.155-.053.517-.969 1.56-8.823 6.544-3.916 2.485-5.695 3.342-7.197 2.631-.505-.239-.654-.52-2.269-1.501-1.689-1.023-2.005-1.007-2.408-1.549-.606-.815-.372-1.493-.535-3.472-.237-2.9-.874-3.083-.607-3.884 1.122-3.348 12.776-1.926 13.856-1.794 1.657.203 7.752.945 7.978 2.87z"/>
        <path fill="#009700" d="M119.885 108.01c.005.053.008.09.005.135-.045.447-.84 1.349-7.639 5.664-3.392 2.15-4.931 2.895-6.23 2.28-.437-.208-.567-.45-1.965-1.299-1.46-.886-1.734-.871-2.086-1.341-.525-.705-.322-1.293-.463-3.005-.205-2.51-.755-2.667-.524-3.364.97-2.898 11.059-1.667 11.995-1.555 1.435.174 6.712.818 6.907 2.485z"/>
        <path fill="#006500" d="M107.193 111.567c2.309-.457 4.15-.98 4.113-1.169-.038-.189-1.94.028-4.249.485-2.309.457-4.151.98-4.113 1.169.038.189 1.94-.028 4.249-.485zM95.136 97.02c.86-.287 1.717-.585 2.566-.906-5.3-11.373-4.886-11.77-15.361-18.555-.113.186-.226.371-.339.56 9.453 7.277 9.044 7.606 13.134 18.9z"/>
        <path fill="#006500" d="M94.344 93.32l2.396 1.24c5.517-10.148 4.815-10.181 13.861-17.012-.115-.183-.231-.365-.346-.55-9.988 6.385-9.196 6.152-15.91 16.322zM63.992 87.336c.017.126-.826-.397.454.261 1.277.658 7.882-.697 10.67-1.119 1.39-.21 6.179 1.012 7.526-1.484l1.664-3.078c.535-.992 1.669-2.06 1.846-3.328.178-1.27-.95-3.235-1.426-4.213-.697-1.431-.584-4-1.78-4.751-4.983-3.12-12.828 4.888-14.714 7.474-2.887 3.972-4.824 6.17-4.24 10.238z"/>
        <path fill="#009700" d="M66.87 85.135c.022.104-.644-.284.349.225.992.508 6.534-.402 8.874-.54 1.167-.07 5.677.98 6.895-1.223.409-.74 1.057-1.841 1.522-2.704.466-.863 1.427-1.793 1.573-2.878.144-1.088-.803-2.837-1.237-3.643-.637-1.184-.428-3.576-1.52-4.124-4.552-2.282-10.661 3.483-13.051 6.3-2.391 2.813-4.147 5.259-3.406 8.587z"/>
        <path fill="#006500" d="M83.908 77.124c.262.798-3.983 1.799-4.637 1.998-.654.2-4.062 1.948-4.308 1.192-.245-.756 3.338-1.833 4.037-2.046.702-.217 4.649-1.943 4.908-1.144zM131.614 78.878c.048.126.939-.461-.42.253-1.358.713-7.859 1.014-12.051 3.791-2.089 1.386-6.532 4.608-9.438 3.123-.975-.497-1.838-1.442-2.782-2.097-.942-.652-2.25-1.169-2.96-2.195-.711-1.026-.437-3.218-.389-4.27.07-1.543-1.007-3.907-.232-5.04 3.228-4.72 14.91-2.268 18.242-1.25 5.108 1.557 8.483 3.597 10.03 7.685z"/>
        <path fill="#009700" d="M127.617 76.48c.048.093 1.088.171-.417-.025-1.508-.197-8.054 3.75-10.349 5.813-1.144 1.028-5.883 3.952-8.073 2.639-.736-.441-1.655-1.237-2.422-1.802-.767-.565-1.979-1.006-2.565-1.883-.589-.877-.415-2.803-.333-3.697.118-1.31-.975-3.432-.206-4.365 3.203-3.882 12.057-2.136 15.849-1.36 3.791.773 6.94 1.737 8.516 4.68z"/>
        <path fill="#006500" d="M105.493 79.507c.136.85 4.508-.258 5.32-.413.812-.157 5.291-.531 5.181-1.38-.11-.849-4.516.357-5.294.509-.778.151-5.342.435-5.207 1.284z"/>
        <path fill="#EFCE98" d="M15 187.244h160.526c-17.909-23.142-50.863-36.868-85.3-35.451-48.564 1.999-73.351 33.011-75.226 35.451z"/>
        <path fill="#B3D6F8" stroke="#1F3A93" stroke-miterlimit="10" stroke-width="4.509" d="M186.388 152.985l-.465.464c-1.317 1.312-3.468 1.312-4.784 0l-8.731-8.706c-1.316-1.313-1.316-3.457 0-4.77l.466-.464c1.316-1.313 3.467-1.313 4.783 0l8.731 8.706c1.314 1.312 1.314 3.46 0 4.77z"/>
        <path fill="#D43900" stroke="#B50000" stroke-miterlimit="10" stroke-width="4.509" d="M221.758 184.009l-4.722 4.708c-1.316 1.313-3.467 1.313-4.784 0l-28.26-28.176c-1.317-1.313-1.317-3.458 0-4.771l4.721-4.708c1.317-1.313 3.468-1.313 4.784 0l28.261 28.177c1.317 1.312 1.317 3.46 0 4.77z"/>
        <path fill="#06C" stroke="#020F5B" stroke-miterlimit="10" stroke-width="4.509" d="M137.295 152.142c-4.959-2.204-9.918-4.405-14.876-6.609v-38.338h14.876v44.947z"/>
        <path fill="#FFFF64" stroke="#F90" stroke-miterlimit="10" stroke-width="4.509" d="M156.43 97.09h-14.876v56.634h14.876V97.09z"/>
        <path fill="#FF5B29" stroke="#B50000" stroke-miterlimit="10" stroke-width="4.509" d="M175.566 145.533c-4.959 2.066-9.918 4.135-14.876 6.201V86.02h14.876v59.513z"/>
        <path stroke="#1F3A93" stroke-miterlimit="10" stroke-width="4.509" d="M148.994 154.843c23.462 0 42.482-18.966 42.482-42.361 0-23.395-19.02-42.36-42.482-42.36-23.463 0-42.483 18.965-42.483 42.36s19.02 42.361 42.483 42.361z"/>
        <path fill="#FFFF64" stroke="#F90" stroke-miterlimit="10" stroke-width="4.509" d="M54.447 32.455c2.573 9.836-10.014 22.08-19.508 19.452-6.351-1.76-11.707-10.288-9.47-18.465 1.602-5.852 6.831-10.56 13.29-11.134 7.448-.66 14.182 4.388 15.688 10.147z"/>
        <path fill="#BADCF7" d="M35.77 64.168h41.296c4.79.126 9.092-2.774 10.62-7.064 1.72-4.829-.426-10.448-5.193-13.073-.082-.343-1.283-4.95-5.866-6.578-3.26-1.158-6.944-.351-9.506 2.069-.05-.964-.355-4.41-3.115-7.16-4.268-4.255-10.394-2.847-10.752-2.757-.896.152-6.83 1.254-10.236 6.859-2.813 4.632-2.044 9.284-1.82 10.422-.728-.247-4.232-1.357-7.539.464-4.073 2.246-5.832 7.831-3.828 12.02 1.655 3.454 5.212 4.584 5.94 4.798z"/>
        <path fill="#000" d="M57.243 181.28c12.058 0 21.833-1.299 21.833-2.901 0-1.602-9.775-2.901-21.833-2.901-12.058 0-21.833 1.299-21.833 2.901 0 1.602 9.775 2.901 21.833 2.901z" opacity=".18"/>
        <path fill="#9CBB3A" stroke="#000" stroke-miterlimit="10" stroke-width=".282" d="M46.24 174.587c.246-.568.494-1.133.739-1.701.465-.303 1.068-.638 1.277-.452.11.098.118.337-.065.806-.617 1.574 2.041 3.067 1.807 4.026-.124.517-1.063 1.073-4.902 1.104-.603.031-1.64-.005-2.74-.528-.22-.104-2.61-1.245-2.484-2.702.096-1.104 1.63-2.231 3.764-2.254.865.568 1.736 1.136 2.604 1.701zM61.407 173.96c-.245-.568-.494-1.133-.739-1.701-.465-.303-1.068-.638-1.277-.452-.11.098-.118.337.065.806.617 1.575-2.041 3.067-1.807 4.026.124.517 1.063 1.073 4.902 1.104.603.031 1.64-.005 2.74-.528.22-.104 2.61-1.245 2.484-2.701-.096-1.105-1.63-2.232-3.764-2.255l-2.604 1.701z"/>
        <path fill="#4F803B" d="M50 177.266c.004-.015.004-.029.007-.043-1.593.453-2.867.4-3.78.236-2.036-.362-3.992-1.543-5.774-3.415-.338.34-.544.72-.578 1.099-.127 1.456 2.264 2.598 2.484 2.702 1.099.525 2.136.559 2.74.528 3.836-.034 4.775-.593 4.902-1.107zM57.874 176.852c-.002-.014-.002-.028-.005-.042 1.593.453 2.867.399 3.78.236 2.035-.362 3.992-1.543 5.773-3.415.339.34.544.72.578 1.099.127 1.456-2.263 2.597-2.483 2.701-1.1.526-2.137.56-2.74.529-3.84-.034-4.779-.593-4.903-1.108z"/>
        <path fill="#F8D9AF" stroke="#000" stroke-miterlimit="10" stroke-width=".282" d="M33.44 150.334v2.887c-.316-.129-1.495-.568-2.363 0-.082.053-.16.115-.24.194 0 0-.113.107-.208.236-.144.191-.855 2.162.259 4.036.78 1.316 2.038 1.867 2.551 2.058.823 1.954 2.309 4.849 4.953 7.736 1.258 1.371 2.54 2.774 4.581 3.918 4.088 2.291 8.249 1.883 11.922 1.524 3.507-.343 7.29-.714 10.926-3.43 2.867-2.139 4.4-4.804 4.911-5.714 1.054-1.872 1.607-3.598 1.911-4.852.277-.705.553-1.414.826-2.119.38.033 1.057.033 1.731-.321 1.212-.638 1.537-1.962 1.711-2.667.361-1.468.463-4.31-1.105-4.953-1.006-.413-2.201.286-2.67.599l-.992-1.957-38.705 2.825z"/>
        <path fill="#F7CDA4" d="M75.355 149.378c-.95-.39-2.077.27-2.52.565-.313-.615-.623-1.231-.936-1.846-.567 3.544-2.438 12.098-9.483 18.869-2.554 2.454-5.167 4.079-7.352 5.161l.558-.053c3.31-.324 6.879-.672 10.31-3.236 2.703-2.018 4.152-4.534 4.634-5.391.995-1.768 1.516-3.396 1.804-4.579.26-.666.521-1.332.78-2.001.362.031.999.033 1.636-.301 1.144-.602 1.452-1.85 1.615-2.516.336-1.386.431-4.067-1.046-4.672z" opacity=".8"/>
        <path fill="#9D491B" d="M37.673 161.114c.419 0 .758-.339.758-.756 0-.418-.34-.756-.758-.756-.419 0-.758.338-.758.756 0 .417.34.756.758.756zM68.538 158.846c.42 0 .759-.339.759-.757 0-.417-.34-.756-.758-.756-.42 0-.758.339-.758.756 0 .418.339.757.757.757z"/>
        <path fill="#000" stroke="#000" stroke-miterlimit="10" stroke-width=".282" d="M41.42 158.376c1.097 0 1.987-.734 1.987-1.639s-.89-1.638-1.987-1.638c-1.098 0-1.988.733-1.988 1.638 0 .905.89 1.639 1.988 1.639zM62.825 156.701c1.097 0 1.987-.734 1.987-1.639s-.89-1.639-1.987-1.639c-1.098 0-1.988.734-1.988 1.639s.89 1.639 1.988 1.639zM35.41 153.111c.115.779 9.858.383 9.911-.402.029-.407-2.545-1.037-4.78-.989-2.526.05-5.193.972-5.131 1.391zM57.869 151.858c.115.778 9.858.382 9.912-.402.028-.408-2.546-1.038-4.782-.99-2.525.048-5.192.973-5.13 1.392z"/>
        <path fill="#EA4A65" stroke="#000" stroke-miterlimit="10" stroke-width=".282" d="M42.55 161.117c7.042-.756 14.084-1.515 21.123-2.271.082.843.113 2.285-.434 3.89-.792 2.327-2.32 3.606-3.126 4.261-3.403 2.769-8.74 3.519-12.779 1.15-.823-.484-3.07-1.802-4.192-4.602-.383-.958-.53-1.827-.592-2.428z"/>
        <path fill="#E43753" d="M48.49 160.785c3.087-.379 6.17-.756 9.258-1.136.047.259.081.703-.136 1.209-.316.734-.967 1.161-1.313 1.378-1.458.924-3.792 1.264-5.602.618-.37-.132-1.376-.492-1.911-1.332-.183-.29-.26-.554-.296-.737z"/>
        <path stroke="#000" stroke-miterlimit="10" stroke-width=".282" d="M75.567 143.014c-7.555.996-15.375 1.844-23.446 2.516-7.014.585-13.85 1.001-20.494 1.274.783 17.073 7.151 29.332 14.594 30.653 1.282.227 3.273.25 5.855-1.057-.305.213-.615.472-.914.767-1.237 1.234-1.804 2.668-1.268 3.202.535.534 1.973-.034 3.21-1.265.175-.174.336-.354.486-.534.098.112.202.225.312.334 1.238 1.234 2.676 1.799 3.211 1.265.536-.534-.033-1.967-1.268-3.201-.375-.374-.77-.689-1.153-.928 4.028 1.757 6.895 1.093 8.319.573 7.825-2.853 13.596-16.463 12.556-33.599z"/>
        <path fill="#D28530" stroke="#000" stroke-miterlimit="10" stroke-width=".282" d="M37.628 141.8c-1.683.464-4.192 1.383-6.951 3.345-1.954 1.392-3.87 2.755-3.724 3.711.152 1.009 2.638 1.863 13.773.803 8.818-.548 26.322-1.689 36.064-2.763 1.644-.18 5.08-.584 5.207-1.875.146-1.501-4.274-3.361-5.207-3.752-3.281-1.372-6.202-1.687-8.113-1.746-.428-2.527-1.212-5.768-2.704-9.31-1.24-2.94-2.646-5.321-3.898-7.148-2.402-.61-5.86-1.186-10.005-.874-4.572.346-8.215 1.639-10.608 2.721-.685 1.535-1.378 3.342-1.987 5.425-1.294 4.416-1.726 8.436-1.847 11.463z"/>
        <path fill="#C87029" d="M75.42 141.235c-2.89-1.206-5.46-1.484-7.14-1.535-.378-2.223-1.066-5.076-2.38-8.193-1.09-2.589-2.328-4.683-3.43-6.291-3.048-2.229-3.984-2.359-4.288-2.08-1.224 1.116 7.591 9.11 5.982 16.182-.99 4.346-5.613 7.016-9.25 8.568 9.847-.498 16.463-1.251 20.509-1.698 1.449-.16 4.47-.514 4.584-1.65.126-1.321-3.767-2.96-4.587-3.303z"/>
        <path fill="#06C" stroke="#020F5B" stroke-miterlimit="10" stroke-width="2.254" d="M26.22 185.712c-1.714-.019-3.428-.039-5.142-.056l-.009-15.184h5.15v15.24z"/>
        <path fill="#FFFF64" stroke="#F90" stroke-miterlimit="10" stroke-width="2.254" d="M32.844 166.48h-5.15v19.207h5.15V166.48z"/>
        <path fill="#FF5B44" stroke="#B50000" stroke-miterlimit="10" stroke-width="2.254" d="M39.424 185.934c-1.7-.028-3.4-.053-5.103-.081v-22.285h5.15c-.013 7.457-.03 14.912-.047 22.366z"/>
    </g>
    <defs>
        <clipPath id="clip0">
            <path fill="#fff" d="M0 0H210V200H0z" transform="translate(15 20)"/>
        </clipPath>
    </defs>
</svg>
