<svg xmlns="http://www.w3.org/2000/svg" width="200" height="200" fill="none" viewBox="0 0 200 200">
    <g clip-path="url(#clip0)">
        <path fill="#000" d="M107.799 180.01c32.473 0 58.797-3.507 58.797-7.833 0-4.326-26.324-7.833-58.797-7.833-32.472 0-58.797 3.507-58.797 7.833 0 4.326 26.325 7.833 58.797 7.833z" opacity=".18"/>
        <path fill="#94BF00" stroke="#000" stroke-miterlimit="10" stroke-width=".418" d="M78.167 161.941c.664-1.529 1.324-3.062 1.989-4.591 1.253-.819 2.874-1.725 3.438-1.224.297.263.322.907-.176 2.177-1.658 4.253 5.494 8.28 4.867 10.866-.338 1.395-2.861 2.899-13.205 2.987-1.63.083-4.42-.013-7.378-1.429-.59-.28-7.027-3.363-6.684-7.294.259-2.987 4.39-6.024 10.135-6.091 2.335 1.537 4.675 3.066 7.014 4.599zM119.008 160.245c-.664-1.529-1.324-3.062-1.989-4.591-1.253-.819-2.874-1.725-3.438-1.224-.296.263-.322.907.176 2.177 1.658 4.252-5.494 8.28-4.867 10.866.338 1.395 2.861 2.899 13.205 2.987 1.63.083 4.42-.013 7.378-1.429.589-.28 7.027-3.363 6.684-7.294-.259-2.987-4.39-6.024-10.135-6.091-2.335 1.537-4.675 3.07-7.014 4.599z"/>
        <path fill="#3D832F" d="M88.294 169.169c.008-.038.012-.079.016-.117-4.286 1.224-7.724 1.074-10.18.635-5.482-.978-10.75-4.165-15.55-9.224-.91.914-1.466 1.942-1.554 2.97-.343 3.931 6.095 7.01 6.684 7.294 2.962 1.416 5.753 1.512 7.378 1.429 10.34-.084 12.867-1.592 13.206-2.987zM109.5 168.053c-.009-.037-.013-.079-.017-.117 4.286 1.225 7.725 1.074 10.181.635 5.481-.977 10.749-4.165 15.549-9.224.911.915 1.467 1.943 1.554 2.97.343 3.932-6.095 7.011-6.684 7.295-2.962 1.416-5.753 1.512-7.378 1.429-10.344-.088-12.871-1.592-13.205-2.988z"/>
        <path fill="#FFD9AA" stroke="#000" stroke-miterlimit="10" stroke-width=".418" d="M43.697 96.44v7.799c-.849-.347-4.024-1.533-6.359 0-.217.142-.434.313-.648.522 0 0-.304.293-.563.639-.385.514-2.302 5.837.697 10.9 2.106 3.555 5.486 5.043 6.873 5.556 2.218 5.277 6.216 13.093 13.335 20.893 3.384 3.706 6.839 7.495 12.332 10.582 11.004 6.183 22.209 5.084 32.102 4.115 9.441-.927 19.627-1.926 29.423-9.258 7.716-5.773 11.848-12.975 13.227-15.432 2.841-5.059 4.324-9.717 5.147-13.105.743-1.91 1.483-3.819 2.226-5.728 1.028.092 2.85.096 4.663-.865 3.263-1.721 4.14-5.297 4.608-7.202.969-3.961 1.241-11.64-2.971-13.373-2.711-1.115-5.932.777-7.189 1.617-.89-1.763-1.78-3.526-2.674-5.285l-104.23 7.624z"/>
        <path fill="#FFCD9F" d="M156.57 93.858c-2.557-1.053-5.594.73-6.785 1.524-.839-1.662-1.679-3.325-2.523-4.988-1.525 9.575-6.563 32.674-25.538 50.964-6.877 6.63-13.916 11.012-19.798 13.937.501-.05 1.002-.096 1.499-.146 8.907-.874 18.52-1.818 27.765-8.736 7.282-5.448 11.18-12.245 12.479-14.559 2.678-4.775 4.082-9.17 4.855-12.362.701-1.801 1.399-3.601 2.101-5.402.969.084 2.686.088 4.399-.815 3.079-1.625 3.906-4.996 4.345-6.792.923-3.744 1.178-10.988-2.799-12.626z" opacity=".8"/>
        <path fill="#AA4300" d="M55.098 125.554c1.126 0 2.038-.913 2.038-2.039 0-1.126-.912-2.039-2.038-2.039s-2.04.913-2.04 2.039c0 1.126.914 2.039 2.04 2.039zM138.213 119.429c1.126 0 2.039-.913 2.039-2.039 0-1.125-.913-2.038-2.039-2.038-1.126 0-2.038.913-2.038 2.038 0 1.126.912 2.039 2.038 2.039z"/>
        <path fill="#000" stroke="#000" stroke-miterlimit="10" stroke-width=".418" d="M65.191 118.159c2.956 0 5.352-1.981 5.352-4.424 0-2.443-2.396-4.424-5.352-4.424-2.956 0-5.352 1.981-5.352 4.424 0 2.443 2.397 4.424 5.352 4.424zM122.826 113.639c2.956 0 5.352-1.981 5.352-4.424 0-2.444-2.396-4.424-5.352-4.424-2.955 0-5.351 1.98-5.351 4.424 0 2.443 2.396 4.424 5.351 4.424zM49.007 103.942c.313 2.106 26.545 1.032 26.69-1.086.076-1.098-6.85-2.799-12.875-2.673-6.805.137-13.983 2.631-13.815 3.759zM109.483 100.554c.313 2.106 26.545 1.032 26.691-1.086.075-1.099-6.851-2.799-12.875-2.674-6.802.138-13.983 2.632-13.816 3.76z"/>
        <path fill="#FF3562" stroke="#000" stroke-miterlimit="10" stroke-width=".418" d="M68.237 125.562c18.962-2.043 37.921-4.09 56.883-6.133.217 2.277.301 6.171-1.17 10.507-2.13 6.283-6.249 9.734-8.413 11.505-9.162 7.479-23.534 9.505-34.408 3.109-2.218-1.308-8.268-4.863-11.292-12.425-1.04-2.598-1.433-4.938-1.6-6.563z"/>
        <path fill="#F9124E" d="M84.229 124.664c8.31-1.024 16.619-2.043 24.928-3.067.129.698.221 1.897-.363 3.267-.849 1.985-2.607 3.134-3.535 3.723-3.923 2.498-10.21 3.417-15.085 1.667-.995-.36-3.706-1.329-5.147-3.602-.498-.777-.702-1.491-.798-1.988z"/>
        <path stroke="#000" stroke-miterlimit="10" stroke-width=".418" d="M157.142 76.679c-20.341 2.682-41.401 4.984-63.138 6.797-18.887 1.575-37.294 2.703-55.183 3.438 2.114 46.114 19.255 79.209 39.296 82.777 3.45.614 8.815.677 15.766-2.853-.823.576-1.658 1.274-2.46 2.076-3.33 3.33-4.863 7.202-3.422 8.644 1.441 1.441 5.31-.088 8.644-3.422.472-.472.906-.957 1.303-1.445.268.3.543.605.84.902 3.33 3.33 7.202 4.863 8.644 3.422 1.441-1.442-.088-5.31-3.422-8.644-1.011-1.011-2.076-1.855-3.104-2.502 10.849 4.741 18.57 2.949 22.401 1.549 21.093-7.707 36.638-44.471 33.835-90.74z"/>
        <path fill="#DF8300" stroke="#000" stroke-miterlimit="10" stroke-width=".418" d="M54.976 73.395c-4.537 1.254-11.288 3.73-18.716 9.037-5.26 3.755-10.419 7.44-10.03 10.022.41 2.724 7.106 5.034 37.09 2.172 23.745-1.483 70.878-4.566 97.114-7.465 4.428-.49 13.678-1.584 14.02-5.06.397-4.052-11.509-9.082-14.02-10.135-8.836-3.701-16.702-4.557-21.845-4.712-1.153-6.826-3.263-15.579-7.282-25.141-3.338-7.942-7.127-14.372-10.498-19.306-6.468-1.646-15.784-3.204-26.942-2.36-12.316.932-22.121 4.424-28.572 7.344-1.842 4.145-3.71 9.028-5.351 14.647-3.472 11.924-4.642 22.786-4.968 30.957z"/>
        <path fill="#D66B00" d="M156.745 71.87c-7.779-3.258-14.701-4.01-19.23-4.148-1.015-6.008-2.87-13.711-6.408-22.13-2.941-6.993-6.271-12.65-9.241-16.99-8.201-6.02-10.729-6.367-11.543-5.62-3.297 3.017 20.445 24.603 16.109 43.708-2.661 11.735-15.111 18.946-24.908 23.14 26.516-1.345 44.33-3.38 55.221-4.583 3.898-.43 12.04-1.39 12.341-4.453.351-3.568-10.127-7.996-12.341-8.924z"/>
    </g>
    <defs>
        <clipPath id="clip0">
            <path fill="#fff" d="M0 0H148.672V160.01H0z" transform="translate(26 20)"/>
        </clipPath>
    </defs>
</svg>
